<mxfile host="app.diagrams.net" agent="Mozilla/5.0 (X11; Linux x86_64; rv:127.0) Gecko/20100101 Firefox/127.0" version="24.7.16">
  <diagram name="Page-1" id="y0Up9jAJ_rbTTUTgBe3h">
    <mxGraphModel dx="1434" dy="778" grid="1" gridSize="10" guides="1" tooltips="1" connect="1" arrows="1" fold="1" page="1" pageScale="1" pageWidth="850" pageHeight="1100" math="0" shadow="0">
      <root>
        <mxCell id="0" />
        <mxCell id="1" parent="0" />
        <mxCell id="r5ye3P-uED1gcWgzFyAL-1" value="" style="ellipse;html=1;shape=startState;fillColor=#000000;strokeColor=#ff0000;" vertex="1" parent="1">
          <mxGeometry x="73" y="430" width="30" height="30" as="geometry" />
        </mxCell>
        <mxCell id="r5ye3P-uED1gcWgzFyAL-2" value="" style="edgeStyle=orthogonalEdgeStyle;html=1;verticalAlign=bottom;endArrow=open;endSize=8;strokeColor=#ff0000;rounded=0;entryX=0.5;entryY=0;entryDx=0;entryDy=0;" edge="1" source="r5ye3P-uED1gcWgzFyAL-1" parent="1" target="r5ye3P-uED1gcWgzFyAL-3">
          <mxGeometry relative="1" as="geometry">
            <mxPoint x="88" y="570" as="targetPoint" />
          </mxGeometry>
        </mxCell>
        <mxCell id="r5ye3P-uED1gcWgzFyAL-21" style="edgeStyle=orthogonalEdgeStyle;rounded=0;orthogonalLoop=1;jettySize=auto;html=1;entryX=0;entryY=0.5;entryDx=0;entryDy=0;" edge="1" parent="1" source="r5ye3P-uED1gcWgzFyAL-3" target="r5ye3P-uED1gcWgzFyAL-19">
          <mxGeometry relative="1" as="geometry" />
        </mxCell>
        <mxCell id="r5ye3P-uED1gcWgzFyAL-3" value="Orders" style="rounded=1;arcSize=10;whiteSpace=wrap;html=1;align=center;" vertex="1" parent="1">
          <mxGeometry x="38" y="520" width="100" height="40" as="geometry" />
        </mxCell>
        <mxCell id="r5ye3P-uED1gcWgzFyAL-4" value="Manage Orders" style="text;html=1;align=center;verticalAlign=middle;resizable=0;points=[];autosize=1;strokeColor=none;fillColor=none;" vertex="1" parent="1">
          <mxGeometry x="88" y="470" width="110" height="30" as="geometry" />
        </mxCell>
        <mxCell id="r5ye3P-uED1gcWgzFyAL-33" style="edgeStyle=orthogonalEdgeStyle;rounded=0;orthogonalLoop=1;jettySize=auto;html=1;exitX=1;exitY=0.5;exitDx=0;exitDy=0;entryX=0.5;entryY=0;entryDx=0;entryDy=0;" edge="1" parent="1" source="r5ye3P-uED1gcWgzFyAL-5" target="r5ye3P-uED1gcWgzFyAL-9">
          <mxGeometry relative="1" as="geometry" />
        </mxCell>
        <mxCell id="r5ye3P-uED1gcWgzFyAL-35" style="edgeStyle=orthogonalEdgeStyle;rounded=0;orthogonalLoop=1;jettySize=auto;html=1;entryX=0.5;entryY=1;entryDx=0;entryDy=0;" edge="1" parent="1" source="r5ye3P-uED1gcWgzFyAL-5" target="r5ye3P-uED1gcWgzFyAL-34">
          <mxGeometry relative="1" as="geometry" />
        </mxCell>
        <mxCell id="r5ye3P-uED1gcWgzFyAL-5" value="Order Info" style="rounded=1;arcSize=10;whiteSpace=wrap;html=1;align=center;" vertex="1" parent="1">
          <mxGeometry x="468" y="520" width="100" height="40" as="geometry" />
        </mxCell>
        <mxCell id="r5ye3P-uED1gcWgzFyAL-7" value="Search Order ID" style="text;html=1;align=center;verticalAlign=middle;resizable=0;points=[];autosize=1;strokeColor=none;fillColor=none;" vertex="1" parent="1">
          <mxGeometry x="143" y="510" width="120" height="30" as="geometry" />
        </mxCell>
        <mxCell id="r5ye3P-uED1gcWgzFyAL-13" style="edgeStyle=orthogonalEdgeStyle;rounded=0;orthogonalLoop=1;jettySize=auto;html=1;entryX=1;entryY=0.5;entryDx=0;entryDy=0;exitX=0.5;exitY=1;exitDx=0;exitDy=0;" edge="1" parent="1" source="r5ye3P-uED1gcWgzFyAL-9" target="r5ye3P-uED1gcWgzFyAL-12">
          <mxGeometry relative="1" as="geometry" />
        </mxCell>
        <mxCell id="r5ye3P-uED1gcWgzFyAL-9" value="&lt;div&gt;Get Payment&lt;/div&gt;&lt;div&gt;Info&lt;br&gt;&lt;/div&gt;" style="rounded=1;arcSize=10;whiteSpace=wrap;html=1;align=center;" vertex="1" parent="1">
          <mxGeometry x="703" y="660" width="100" height="40" as="geometry" />
        </mxCell>
        <mxCell id="r5ye3P-uED1gcWgzFyAL-11" value="Refund Order" style="text;html=1;align=center;verticalAlign=middle;resizable=0;points=[];autosize=1;strokeColor=none;fillColor=none;" vertex="1" parent="1">
          <mxGeometry x="613" y="510" width="100" height="30" as="geometry" />
        </mxCell>
        <mxCell id="r5ye3P-uED1gcWgzFyAL-18" style="edgeStyle=orthogonalEdgeStyle;rounded=0;orthogonalLoop=1;jettySize=auto;html=1;exitX=0;exitY=0.5;exitDx=0;exitDy=0;entryX=0.5;entryY=1;entryDx=0;entryDy=0;" edge="1" parent="1" source="r5ye3P-uED1gcWgzFyAL-12" target="r5ye3P-uED1gcWgzFyAL-17">
          <mxGeometry relative="1" as="geometry" />
        </mxCell>
        <mxCell id="r5ye3P-uED1gcWgzFyAL-28" style="edgeStyle=orthogonalEdgeStyle;rounded=0;orthogonalLoop=1;jettySize=auto;html=1;entryX=0.5;entryY=1;entryDx=0;entryDy=0;" edge="1" parent="1" source="r5ye3P-uED1gcWgzFyAL-12" target="r5ye3P-uED1gcWgzFyAL-26">
          <mxGeometry relative="1" as="geometry" />
        </mxCell>
        <mxCell id="r5ye3P-uED1gcWgzFyAL-12" value="Reverse Payment" style="rounded=1;arcSize=10;whiteSpace=wrap;html=1;align=center;" vertex="1" parent="1">
          <mxGeometry x="633" y="750" width="100" height="40" as="geometry" />
        </mxCell>
        <mxCell id="r5ye3P-uED1gcWgzFyAL-15" value="Success" style="text;html=1;align=center;verticalAlign=middle;resizable=0;points=[];autosize=1;strokeColor=none;fillColor=none;" vertex="1" parent="1">
          <mxGeometry x="743" y="730" width="70" height="30" as="geometry" />
        </mxCell>
        <mxCell id="r5ye3P-uED1gcWgzFyAL-16" value="Success" style="text;html=1;align=center;verticalAlign=middle;resizable=0;points=[];autosize=1;strokeColor=none;fillColor=none;" vertex="1" parent="1">
          <mxGeometry x="513" y="745" width="70" height="30" as="geometry" />
        </mxCell>
        <mxCell id="r5ye3P-uED1gcWgzFyAL-32" style="edgeStyle=orthogonalEdgeStyle;rounded=0;orthogonalLoop=1;jettySize=auto;html=1;entryX=0.5;entryY=1;entryDx=0;entryDy=0;" edge="1" parent="1" source="r5ye3P-uED1gcWgzFyAL-17" target="r5ye3P-uED1gcWgzFyAL-5">
          <mxGeometry relative="1" as="geometry" />
        </mxCell>
        <mxCell id="r5ye3P-uED1gcWgzFyAL-17" value="Refund Successful" style="rounded=1;arcSize=10;whiteSpace=wrap;html=1;align=center;" vertex="1" parent="1">
          <mxGeometry x="418" y="610" width="100" height="40" as="geometry" />
        </mxCell>
        <mxCell id="r5ye3P-uED1gcWgzFyAL-22" style="edgeStyle=orthogonalEdgeStyle;rounded=0;orthogonalLoop=1;jettySize=auto;html=1;entryX=0;entryY=0.5;entryDx=0;entryDy=0;" edge="1" parent="1" source="r5ye3P-uED1gcWgzFyAL-19" target="r5ye3P-uED1gcWgzFyAL-5">
          <mxGeometry relative="1" as="geometry" />
        </mxCell>
        <mxCell id="r5ye3P-uED1gcWgzFyAL-24" style="edgeStyle=orthogonalEdgeStyle;rounded=0;orthogonalLoop=1;jettySize=auto;html=1;exitX=0.25;exitY=1;exitDx=0;exitDy=0;entryX=0.5;entryY=1;entryDx=0;entryDy=0;" edge="1" parent="1" source="r5ye3P-uED1gcWgzFyAL-19" target="r5ye3P-uED1gcWgzFyAL-3">
          <mxGeometry relative="1" as="geometry" />
        </mxCell>
        <mxCell id="r5ye3P-uED1gcWgzFyAL-19" value="Get Order " style="rounded=1;arcSize=10;whiteSpace=wrap;html=1;align=center;" vertex="1" parent="1">
          <mxGeometry x="273" y="520" width="100" height="40" as="geometry" />
        </mxCell>
        <mxCell id="r5ye3P-uED1gcWgzFyAL-23" value="Success" style="text;html=1;align=center;verticalAlign=middle;resizable=0;points=[];autosize=1;strokeColor=none;fillColor=none;" vertex="1" parent="1">
          <mxGeometry x="383" y="510" width="70" height="30" as="geometry" />
        </mxCell>
        <mxCell id="r5ye3P-uED1gcWgzFyAL-25" value="Not Found" style="text;html=1;align=center;verticalAlign=middle;resizable=0;points=[];autosize=1;strokeColor=none;fillColor=none;" vertex="1" parent="1">
          <mxGeometry x="153" y="580" width="80" height="30" as="geometry" />
        </mxCell>
        <mxCell id="r5ye3P-uED1gcWgzFyAL-31" style="edgeStyle=orthogonalEdgeStyle;rounded=0;orthogonalLoop=1;jettySize=auto;html=1;entryX=0.75;entryY=1;entryDx=0;entryDy=0;" edge="1" parent="1" source="r5ye3P-uED1gcWgzFyAL-26" target="r5ye3P-uED1gcWgzFyAL-5">
          <mxGeometry relative="1" as="geometry" />
        </mxCell>
        <mxCell id="r5ye3P-uED1gcWgzFyAL-26" value="&lt;div&gt;Error Message&lt;/div&gt;" style="rounded=1;arcSize=10;whiteSpace=wrap;html=1;align=center;" vertex="1" parent="1">
          <mxGeometry x="533" y="610" width="100" height="40" as="geometry" />
        </mxCell>
        <mxCell id="r5ye3P-uED1gcWgzFyAL-29" value="Failure" style="text;html=1;align=center;verticalAlign=middle;resizable=0;points=[];autosize=1;strokeColor=none;fillColor=none;" vertex="1" parent="1">
          <mxGeometry x="613" y="670" width="60" height="30" as="geometry" />
        </mxCell>
        <mxCell id="r5ye3P-uED1gcWgzFyAL-41" style="edgeStyle=orthogonalEdgeStyle;rounded=0;orthogonalLoop=1;jettySize=auto;html=1;entryX=0.5;entryY=1;entryDx=0;entryDy=0;" edge="1" parent="1" source="r5ye3P-uED1gcWgzFyAL-34" target="r5ye3P-uED1gcWgzFyAL-37">
          <mxGeometry relative="1" as="geometry" />
        </mxCell>
        <mxCell id="r5ye3P-uED1gcWgzFyAL-34" value="Update Inventory" style="rounded=1;arcSize=10;whiteSpace=wrap;html=1;align=center;" vertex="1" parent="1">
          <mxGeometry x="468" y="410" width="100" height="40" as="geometry" />
        </mxCell>
        <mxCell id="r5ye3P-uED1gcWgzFyAL-36" value="Cancel Order" style="text;html=1;align=center;verticalAlign=middle;resizable=0;points=[];autosize=1;strokeColor=none;fillColor=none;" vertex="1" parent="1">
          <mxGeometry x="513" y="470" width="100" height="30" as="geometry" />
        </mxCell>
        <mxCell id="r5ye3P-uED1gcWgzFyAL-42" style="edgeStyle=orthogonalEdgeStyle;rounded=0;orthogonalLoop=1;jettySize=auto;html=1;entryX=1;entryY=0.5;entryDx=0;entryDy=0;" edge="1" parent="1" source="r5ye3P-uED1gcWgzFyAL-37" target="r5ye3P-uED1gcWgzFyAL-39">
          <mxGeometry relative="1" as="geometry" />
        </mxCell>
        <mxCell id="r5ye3P-uED1gcWgzFyAL-45" style="edgeStyle=orthogonalEdgeStyle;rounded=0;orthogonalLoop=1;jettySize=auto;html=1;exitX=0;exitY=0.75;exitDx=0;exitDy=0;entryX=0.5;entryY=0;entryDx=0;entryDy=0;" edge="1" parent="1" source="r5ye3P-uED1gcWgzFyAL-37" target="r5ye3P-uED1gcWgzFyAL-44">
          <mxGeometry relative="1" as="geometry" />
        </mxCell>
        <mxCell id="r5ye3P-uED1gcWgzFyAL-37" value="Delete Order" style="rounded=1;arcSize=10;whiteSpace=wrap;html=1;align=center;" vertex="1" parent="1">
          <mxGeometry x="468" y="320" width="100" height="40" as="geometry" />
        </mxCell>
        <mxCell id="r5ye3P-uED1gcWgzFyAL-39" value="" style="ellipse;html=1;shape=endState;fillColor=#000000;strokeColor=#ff0000;" vertex="1" parent="1">
          <mxGeometry x="188" y="325" width="30" height="30" as="geometry" />
        </mxCell>
        <mxCell id="r5ye3P-uED1gcWgzFyAL-43" value="Success" style="text;html=1;align=center;verticalAlign=middle;resizable=0;points=[];autosize=1;strokeColor=none;fillColor=none;" vertex="1" parent="1">
          <mxGeometry x="298" y="310" width="70" height="30" as="geometry" />
        </mxCell>
        <mxCell id="r5ye3P-uED1gcWgzFyAL-47" style="edgeStyle=orthogonalEdgeStyle;rounded=0;orthogonalLoop=1;jettySize=auto;html=1;exitX=0.5;exitY=1;exitDx=0;exitDy=0;entryX=0.25;entryY=0;entryDx=0;entryDy=0;" edge="1" parent="1" source="r5ye3P-uED1gcWgzFyAL-44" target="r5ye3P-uED1gcWgzFyAL-5">
          <mxGeometry relative="1" as="geometry" />
        </mxCell>
        <mxCell id="r5ye3P-uED1gcWgzFyAL-44" value="Error Message" style="rounded=1;arcSize=10;whiteSpace=wrap;html=1;align=center;" vertex="1" parent="1">
          <mxGeometry x="308" y="410" width="100" height="40" as="geometry" />
        </mxCell>
        <mxCell id="r5ye3P-uED1gcWgzFyAL-46" value="Failure" style="text;html=1;align=center;verticalAlign=middle;resizable=0;points=[];autosize=1;strokeColor=none;fillColor=none;" vertex="1" parent="1">
          <mxGeometry x="358" y="360" width="60" height="30" as="geometry" />
        </mxCell>
      </root>
    </mxGraphModel>
  </diagram>
</mxfile>
